<?xml version="1.0" encoding="UTF-8" standalone="no"?>
<svg version="1.1" preserveAspectRatio="none" x="0px" y="0px" width="2500" height="2500" viewBox="0 0 2500 2500" xmlns="http://www.w3.org/2000/svg" xmlns:svg="http://www.w3.org/2000/svg">
	<path fill="#ffffff" stroke="none" d="m 2189.6389,442.93226 q -40.3117,-14.85331 -80.1197,-31.72062 -26.9584,-11.58054 -53.4131,-23.91634 -100.5276,-46.57392 -198.7875,-106.74239 0,-0.25175 0,-0.5035 -4.5351,-21.39883 -8.0624,-43.04941 h -40.3118 l -9.826,43.55291 q -98.26,60.16847 -198.5356,106.74239 -43.3352,20.14008 -87.1742,37.76264 h -375.1517 l -597.87442,-147.27429 16.37667,38.76964 34.76893,47.58093 -46.86246,-11.3288 12.34548,36.75564 21.41565,33.48287 -175.35633,-54.8817 10.3299,48.58793 69.7898,133.42799 -92.46519,-22.40583 12.84939,36.75563 83.89893,199.13498 v 54.12645 l -94.98468,-47.32917 11.84159,62.68598 83.14309,200.14201 v 543.2785 h -32.75333 v 101.4556 h -33.25724 v 101.4556 h -35.02087 v 101.4556 h -33.00529 v 101.4557 H 297 V 2214 h 1907 v -290.0171 l -104.0548,-248.2264 -109.8496,-571.2228 -13.8572,-343.38828 105.0626,-7.30077 v -80.0568 H 1976.2384 V 477.42213 h 143.6107 l 69.7898,-34.48987 M 1641.3985,2061.1872 q 0,-3.021 0.252,-3.7763 0,-0.7552 -0.7559,-0.7552 -0.7558,0.2517 -3.7792,0.5035 h -40.8157 q -2.2675,0 -3.0234,2.5175 -0.5039,2.5175 -0.5039,7.049 h -26.2027 q -0.7559,-10.5735 2.2676,-18.6296 3.0234,-8.3077 10.8338,-13.091 3.0234,-1.7623 6.8025,-2.7693 3.7793,-1.007 7.3066,-1.007 h 46.1066 q 7.5584,0 13.8572,3.7763 6.0467,3.7763 9.826,9.8183 3.5272,6.042 3.7792,13.5945 v 30.4619 q -0.252,7.3008 -3.7792,13.3428 -3.7793,6.2938 -9.826,9.8183 -6.0468,3.7762 -13.6052,3.7762 h -43.3352 q -2.0156,0.2518 -3.0234,1.2588 -1.2598,1.2587 -1.2598,3.021 v 7.8043 h 74.8288 v 25.6786 h -100.7795 v -36.5039 q 0.252,-7.5525 3.7793,-13.5946 3.7791,-6.042 9.826,-9.8182 6.0467,-3.5246 13.6052,-3.7763 h 43.3352 q 1.7636,0 3.0234,-1.007 1.0078,-1.2588 1.2597,-3.021 v -24.6716 m -138.3198,-17.3708 q 3.5272,6.042 3.5272,13.091 v 71.2455 q 0,7.0491 -3.5272,12.8393 -3.5273,5.7903 -9.0703,9.0631 -6.0467,3.5245 -13.1012,3.5245 h -42.3275 q -7.3064,0 -13.1013,-3.5245 -5.7948,-3.2728 -9.3221,-9.0631 -3.2754,-5.7902 -3.5273,-12.8393 v -71.2455 q 0.2519,-7.049 3.5273,-13.091 3.5273,-5.5385 9.3221,-9.0631 5.7949,-3.5245 13.1013,-3.5245 h 42.3275 q 7.0545,0 13.1012,3.5245 5.543,3.5246 9.0703,9.0631 m 299.0631,26.1821 q 7.5584,0.2517 13.6053,3.7762 6.0467,3.5245 9.826,9.8183 3.7791,6.042 3.7791,13.5946 v 28.9513 q 0,7.5526 -3.7791,13.5946 -3.5274,6.2938 -9.826,9.8183 -6.0469,3.7762 -13.6053,3.7762 h -46.3586 q -7.5585,0 -13.6052,-3.5245 -6.0468,-3.5245 -9.826,-9.8183 -3.7793,-6.042 -3.7793,-13.8463 v -67.9727 q 0,-7.5525 3.7793,-13.5946 3.5273,-6.042 9.574,-9.8183 6.2987,-3.7762 13.8572,-3.7762 h 69.5379 l -0.252,25.9303 h -65.7586 q -1.7636,0 -3.2753,1.2588 -1.5117,1.2587 -1.5117,3.5245 v 9.063 q 0.5039,-0.2517 1.7636,-0.5035 1.2598,-0.2517 2.0157,-0.2517 h 43.839 M 1828.3445,477.42213 V 1982.3892 H 546.42925 v -931.4785 l 0.25195,-2.2657 -97.25221,-209.96029 97.25221,42.79765 -0.25195,-1.5105 V 765.92869 l -94.22882,-189.56845 94.22882,24.92335 -89.69374,-178.49141 195.76416,54.62995 -46.86246,-75.02177 54.92482,14.3498 -52.15338,-84.08481 553.27945,144.75678 h 666.6564 M 619.49439,2061.1872 q 0,-3.021 0.25195,-3.7763 0,-0.7552 -0.75585,-0.7552 -0.75584,0.2517 -3.77922,0.5035 h -40.8157 q -2.26754,0 -3.02338,2.5175 -0.50391,2.5175 -0.50391,7.049 h -26.20266 q -0.75586,-10.5735 2.26754,-18.6296 3.02338,-8.3077 10.83379,-13.091 3.02339,-1.7623 6.80261,-2.7693 3.77923,-1.007 7.30652,-1.007 h 46.10662 q 7.55846,0 13.85718,3.7763 6.04677,3.7763 9.826,9.8183 3.52729,6.042 3.77924,13.5945 v 30.4619 q -0.25195,7.3008 -3.77924,13.3428 -3.77923,6.2938 -9.826,9.8183 -6.04677,3.7762 -13.60523,3.7762 h -43.33518 q -2.0156,0.2518 -3.02339,1.2588 -1.25975,1.2587 -1.25975,3.021 v 7.8043 h 74.82879 v 25.6786 h -100.7795 v -36.5039 q 0.25194,-7.5525 3.77922,-13.5946 3.77924,-6.042 9.82601,-9.8182 6.04677,-3.5246 13.60523,-3.7763 h 43.33519 q 1.76363,0 3.02338,-1.007 1.00779,-1.2588 1.25974,-3.021 v -24.6716 m 239.60326,-4.028 v -25.9304 h 44.59492 v 122.351 h -26.20266 v -96.4206 h -18.39226 m -72.56125,-22.4059 q 5.54288,3.5246 9.07017,9.0631 3.52728,6.042 3.52728,13.091 v 71.2455 q 0,7.0491 -3.52728,12.8393 -3.52729,5.7903 -9.07017,9.0631 -6.04676,3.5245 -13.10132,3.5245 h -42.3274 q -7.30651,0 -13.10133,-3.5245 -5.79482,-3.2728 -9.3221,-9.0631 -3.27533,-5.7902 -3.52728,-12.8393 v -71.2455 q 0.25195,-7.049 3.52728,-13.091 3.52728,-5.5385 9.3221,-9.0631 5.79482,-3.5245 13.10133,-3.5245 h 42.3274 q 7.05456,0 13.10132,3.5245 m 209.11747,22.1541 q -1.76365,0 -3.27534,1.2588 -1.51169,1.2587 -1.51169,3.5245 v 9.063 q 0.50389,-0.2517 1.76364,-0.5035 1.25974,-0.2517 2.01559,-0.2517 h 43.83913 q 7.5584,0.2517 13.6052,3.7762 6.0468,3.5245 9.826,9.8183 3.7792,6.042 3.7792,13.5946 v 28.9513 q 0,7.5526 -3.7792,13.5946 -3.5273,6.2938 -9.826,9.8183 -6.0468,3.7762 -13.6052,3.7762 h -46.35861 q -7.55847,0 -13.60524,-3.5245 -6.04676,-3.5245 -9.826,-9.8183 -3.77923,-6.042 -3.77923,-13.8463 v -67.9727 q 0,-7.5525 3.77923,-13.5946 3.52728,-6.042 9.57406,-9.8183 6.29871,-3.7762 13.85718,-3.7762 h 69.53781 l -0.2519,25.9303 h -65.75863 m 256.48373,9.8183 q -0.7558,-10.5735 2.2676,-18.6296 3.0234,-8.3077 10.8338,-13.091 3.0234,-1.7623 6.8027,-2.7693 3.7791,-1.007 7.3064,-1.007 h 46.1067 q 7.5584,0 13.8572,3.7763 6.0467,3.7763 9.826,9.8183 3.5273,6.042 3.7792,13.5945 v 30.4619 q -0.2519,7.3008 -3.7792,13.3428 -3.7793,6.2938 -9.826,9.8183 -6.0469,3.7762 -13.6053,3.7762 h -43.3351 q -2.0156,0.2518 -3.0235,1.2588 -1.2597,1.2587 -1.2597,3.021 v 7.8043 h 74.8288 v 25.6786 h -100.7796 v -36.5039 q 0.252,-7.5525 3.7793,-13.5946 3.7793,-6.042 9.826,-9.8182 6.0468,-3.5246 13.6052,-3.7763 h 43.3352 q 1.7637,0 3.0234,-1.007 1.0078,-1.2588 1.2598,-3.021 v -24.6716 q 0,-3.021 0.2519,-3.7763 0,-0.7552 -0.7558,-0.7552 -0.7559,0.2517 -3.7793,0.5035 h -40.8156 q -2.2676,0 -3.0235,2.5175 -0.5039,2.5175 -0.5039,7.049 h -26.2027 m -124.9665,13.8463 h 63.2391 v 22.6576 h -63.2391 v -22.6576 m -88.6859,16.3638 q -1.2598,-1.007 -2.7715,-1.007 h -41.82348 q -1.25974,0 -2.01558,0.7553 -1.0078,0.7552 -1.0078,2.014 v 24.6716 q 0,1.7622 1.25975,3.021 1.25973,1.2587 2.77143,1.2587 h 40.81568 q 1.7637,-0.2517 2.7715,-1.5105 1.2597,-1.2587 1.2597,-2.7692 v -23.4129 q 0,-2.014 -1.2597,-3.021 m -302.84244,-39.7766 q -1.51169,0 -3.02338,1.007 -1.25975,1.2587 -1.5117,3.2727 v 61.9308 q 0.25195,2.014 1.5117,3.2727 1.25974,1.2588 3.02338,1.2588 H 768.9 q 2.01559,0 3.02338,-1.5105 1.25974,-1.2588 1.25974,-3.021 v -61.9308 q 0,-1.7622 -1.25974,-3.021 -1.00779,-1.2587 -3.02338,-1.2587 h -33.25724 m 24.18709,-622.5801 h 107.5821 v 367.5564 H 679.71014 v 100.7004 H 1165.2154 V 1802.1355 H 976.00187 V 1333.8788 H 830.12354 l -70.29369,67.721 v 32.9793 M 1172.018,655.41003 1155.3894,627.96918 q -77.6002,-14.8533 -143.3589,-65.70699 l -197.02388,17.62257 q -28.97411,40.02839 -77.85217,76.02878 -27.71436,20.64357 -61.72743,37.76263 -13.35329,100.70037 1.25973,195.61047 l 205.08628,176.72916 -10.8338,28.9514 q -6.04676,1.0069 -11.84158,2.0139 -67.27032,10.8253 -123.70683,1.5106 -4.53508,-0.7553 -8.81822,-1.5106 -11.08574,-2.2657 -21.91954,-5.7902 l 20.40786,112.2809 q 5.03897,1.2588 10.07795,2.7692 95.48857,30.7137 154.44457,78.5463 93.72493,-10.07 145.37446,-14.8533 l 63.4911,-29.9583 q 27.7143,-57.9027 70.5456,-108.5047 l -8.8182,-90.3786 q -64.7508,-51.86064 -122.951,-109.25985 -57.9482,-57.39921 -110.35354,-124.61671 -3.27533,-16.86731 23.68318,-60.42022 113.37696,1.51051 198.03176,17.87432 l 23.4312,-109.25991 m 525.3131,746.18977 -63.995,-67.721 h -364.0659 l -65.2547,67.721 v 433.5151 l 65.2547,67.721 h 364.0659 l 63.995,-67.721 v -433.5151 m -99.2678,32.9793 v 367.5564 h -295.5359 v -367.5564 h 295.5359 m -128.9977,149.5401 -22.1715,-68.728 -21.6677,68.728 h -80.1197 l 65.2548,48.5879 -22.6754,72.2525 59.4599,-44.8116 60.9716,45.0634 -23.6832,-73.2595 62.7353,-47.8327 h -78.1041 m 222.9746,-909.32434 q -42.0754,-68.97976 -99.2678,-115.30193 -14.1092,10.32179 -48.6261,15.86031 l -211.889,7.55253 -51.9013,19.13307 0.7558,22.65758 q -17.1326,60.42022 -54.4209,110.51866 -20.9118,27.94435 -48.1222,52.36419 -3.0234,62.43423 14.361,136.70075 3.5273,4.02802 7.0546,8.81128 22.9273,31.21712 36.5326,102.9661 5.2909,27.4409 9.3221,60.9238 7.3065,64.9517 9.574,152.3093 54.169,10.5735 116.6523,17.119 62.4833,6.2938 109.0938,8.0561 7.5585,2.2657 16.3766,3.7762 18.6443,3.7763 43.3352,4.7833 36.5326,1.2587 82.3873,3.2727 l 13.1013,-118.0711 q 13.6053,-45.8187 26.4547,-71.2455 2.5195,-5.0351 5.0389,-9.3148 6.0468,-23.4129 9.0702,-49.3432 3.7792,-30.9654 3.5272,-64.95175 l -176.8679,-52.61594 -13.1014,3.27276 -29.73,112.02913 q 1.2598,2.2658 4.2832,4.7833 1.0078,1.007 2.2675,2.014 l 43.3352,27.1891 q 0.5039,0.2518 1.0078,0.5035 l -2.5195,31.7206 q -4.2832,16.6156 -16.1247,20.8954 l -52.4054,-20.3919 q 0,-2.7692 -0.2519,-5.7902 -3.2754,-28.1961 -7.8104,-56.3922 -8.0624,-51.35724 -21.6676,-102.96618 -7.0546,-25.67859 -15.3689,-51.86069 l 12.5975,-72.25252 131.7691,-14.3498 q 20.9118,17.11906 30.9898,34.23813 L 1682.97,824.3349 q 5.039,-48.33617 7.3065,-89.11982 1.7637,-32.72762 1.7637,-60.42022 m 65.5067,1421.13394 q -1.2598,0 -2.0156,0.7553 -1.0078,0.7552 -1.0078,2.014 v 24.6716 q 0,1.7622 1.2597,3.021 1.2598,1.2587 2.7715,1.2587 h 40.8157 q 1.7636,-0.2517 2.7714,-1.5105 1.2598,-1.2587 1.2598,-2.7692 v -23.4129 q 0,-2.014 -1.2598,-3.021 -1.2597,-1.007 -2.7714,-1.007 h -41.8235 m -317.4555,-37.7626 q -1.2597,1.2587 -1.5117,3.2727 v 61.9308 q 0.252,2.014 1.5117,3.2727 1.2598,1.2588 3.0234,1.2588 h 33.2573 q 2.0156,0 3.0234,-1.5105 1.2597,-1.2588 1.2597,-3.021 v -61.9308 q 0,-1.7622 -1.2597,-3.021 -1.0078,-1.2587 -3.0234,-1.2587 h -33.2573 q -1.5117,0 -3.0234,1.007 z"/>
</svg>
